<?xml version="1.0" encoding="utf-8"?>
<!-- Generator: Adobe Illustrator 16.0.0, SVG Export Plug-In . SVG Version: 6.00 Build 0)  -->
<!DOCTYPE svg PUBLIC "-//W3C//DTD SVG 1.1//EN" "http://www.w3.org/Graphics/SVG/1.1/DTD/svg11.dtd">
<svg version="1.1" id="Layer_1" xmlns="http://www.w3.org/2000/svg" xmlns:xlink="http://www.w3.org/1999/xlink" x="0px" y="0px"
	 width="105px" height="104px" viewBox="0 0 105 104" enable-background="new 0 0 105 104" xml:space="preserve">
<path d="M95.555,54.084L50.766,9.298C39.555-1.915,21.379-1.915,10.168,9.296c-11.212,11.212-11.212,29.388,0.001,40.6
	l44.786,44.788c11.212,11.211,29.389,11.211,40.6,0S106.766,65.296,95.555,54.084z M56.15,54.225
	C44.698,65.422,34.506,69.066,34.506,69.066L13.743,48.304C3.496,38.057,3.12,21.817,12.904,12.033
	c9.784-9.784,26.023-9.408,36.271,0.839l20.765,20.762C69.938,33.634,67.605,43.024,56.15,54.225z"/>
<path fill="none" stroke="#FFFFFF" stroke-width="2.9228" stroke-linecap="round" stroke-miterlimit="10" d="M74.684,42.064"/>
<path fill="none" stroke="#FFFFFF" stroke-width="5.8456" stroke-linecap="round" stroke-miterlimit="10" d="M18.723,13.751
	c-1.089,0.662,10.961-6.76,23.078,0.79c4.549,2.833,11.992,10.906,20.184,18.792"/>
<path fill="none" stroke="#FFFFFF" stroke-width="5.8456" stroke-linecap="round" stroke-miterlimit="10" d="M91.971,86.023
	c-0.664,1.09,6.76-10.961-0.791-23.078c-2.834-4.549-10.906-11.992-18.793-20.183"/>
</svg>
